<svg xmlns="http://www.w3.org/2000/svg" viewBox="0 0 64 64" role="img" aria-label="Study English">
  <circle cx="32" cy="32" r="30" fill="#ec6e4c"/>
  <circle cx="32" cy="32" r="27.5" fill="none" stroke="#f8f5ed" stroke-opacity=".28"/>
  <path
    d="M43 18.5c-3-3-7-4.5-11.8-4.5-6.2 0-10.7 3.2-10.7 8 0 4.3 3.1 6.4 10.4 8.4l2.7.8c6.5 1.9 9.4 4.3 9.4 9 0 5.9-4.9 9.8-12.1 9.8-5.3 0-10-2-13.1-5.5"
    fill="none"
    stroke="#fff"
    stroke-linecap="round"
    stroke-width="5.5"
  />
  <path
    d="M18 52c5.2-1.6 9.9-.7 14 2 4.1-2.7 8.8-3.6 14-2"
    fill="none"
    stroke="#18322d"
    stroke-linecap="round"
    stroke-linejoin="round"
    stroke-width="2.5"
  />
</svg>
